<svg width="112" height="112" viewBox="0 0 112 112" fill="none" xmlns="http://www.w3.org/2000/svg">
<path d="M99.0668 91.7193C104.815 84.8084 108.814 76.6158 110.723 67.8345C112.633 59.0532 112.397 49.9416 110.037 41.2703C107.677 32.5991 103.262 24.6233 97.164 18.0178C91.0665 11.4123 83.4664 6.37137 75.0066 3.32141C66.5469 0.271456 57.4765 -0.697781 48.5625 0.495692C39.6486 1.68916 31.1535 5.01024 23.7959 10.178C16.4382 15.3457 10.4344 22.208 6.29247 30.1845C2.15049 38.161 -0.00785598 47.0169 2.14859e-05 56.0031C0.00304434 69.0664 4.61029 81.7115 13.0133 91.7193L12.9333 91.7873C13.2135 92.1232 13.5337 92.4112 13.8219 92.7432C14.1822 93.1551 14.5704 93.5431 14.9427 93.943C16.0635 95.1589 17.2163 96.3268 18.4252 97.4227C18.7934 97.7586 19.1737 98.0706 19.546 98.3906C20.8269 99.4944 22.1438 100.542 23.5088 101.518C23.6849 101.638 23.8451 101.794 24.0212 101.918V101.87C33.3963 108.462 44.5803 112 56.0441 112C67.5078 112 78.6918 108.462 88.0669 101.87V101.918C88.243 101.794 88.3992 101.638 88.5793 101.518C89.9403 100.538 91.2612 99.4944 92.5421 98.3906C92.9144 98.0706 93.2947 97.7546 93.6629 97.4227C94.8718 96.3228 96.0246 95.1589 97.1454 93.943C97.5177 93.5431 97.9019 93.1551 98.2662 92.7432C98.5504 92.4112 98.8746 92.1232 99.1548 91.7833L99.0668 91.7193ZM56.0401 24.0065C59.6027 24.0065 63.0853 25.062 66.0475 27.0397C69.0097 29.0174 71.3184 31.8283 72.6818 35.117C74.0451 38.4057 74.4018 42.0245 73.7068 45.5158C73.0118 49.0071 71.2962 52.2141 68.7771 54.7311C66.2579 57.2482 63.0483 58.9624 59.5542 59.6568C56.06 60.3513 52.4382 59.9949 49.1468 58.6326C45.8554 57.2704 43.0422 54.9635 41.0629 52.0038C39.0836 49.044 38.0272 45.5642 38.0272 42.0046C38.0272 37.2312 39.925 32.6533 43.303 29.278C46.6811 25.9027 51.2627 24.0065 56.0401 24.0065ZM24.0452 91.7193C24.1146 86.4677 26.2506 81.4546 29.9909 77.7645C33.7312 74.0744 38.7751 72.0041 44.0315 72.0014H68.0486C73.305 72.0041 78.3489 74.0744 82.0892 77.7645C85.8295 81.4546 87.9655 86.4677 88.0349 91.7193C79.256 99.6238 67.8575 103.998 56.0401 103.998C44.2226 103.998 32.8241 99.6238 24.0452 91.7193Z" fill="black"/>
</svg>
